# xmcd
#
# Track frame offsets:
#	150
#	16277
#	19493
#	34620
#	52375
#	69550
#	82573
#	97843
#	111554
#	125904
#	143831
#	161309
#	176276
#	190432
#	207732
#	226435
#	229282
#	245548
#
# Disc length: 3453 seconds
#
# Revision: 2
# Processed by: cddbd v1.5.2PL0 Copyright (c) Steve Scherf et al.
# Submitted via: audiograbber 1.83.01
#
DISCID=fe0d7b12
DTITLE=Various Artist - Promo Only Country Radio 2005 - 03
DYEAR=2005
DGENRE=Country
TTITLE0=Toby Keith - Honky Tonk U
TTITLE1=Tim McGraw - Drugs Or Jesus
TTITLE2=Trick Pony - It's A Heartache
TTITLE3=Darryl Worley - If Something Should Happen
TTITLE4=Travis Tritt - I See Me
TTITLE5=Big and Rich - Big Time
TTITLE6=Buddy Jewell - If She Were Any Other Woman
TTITLE7=The Wrights - Down This Road
TTITLE8=Diamond Rio - One Believer
TTITLE9=George Canyon - My Name
TTITLE10=Aaron Lines - Waitin' On Wonderful
TTITLE11=David Ball - Happy With The One I've Got
TTITLE12=Shelly Fairchild - Tiny Town
TTITLE13=Hanna and McEuen - Something Like A Broken Heart
TTITLE14=Bobby Pinson - Don't Ask Me How I Know
TTITLE15=Nancy Griffith ft. Jimmy Buffett - I Love This Town
TTITLE16=Jeffrey Steele - Just The Way We Do It
TTITLE17=Scooter Lee - Oh Lonesome Me
EXTD=
EXTT0=
EXTT1=
EXTT2=
EXTT3=
EXTT4=
EXTT5=
EXTT6=
EXTT7=
EXTT8=
EXTT9=
EXTT10=
EXTT11=
EXTT12=
EXTT13=
EXTT14=
EXTT15=
EXTT16=
EXTT17=
PLAYORDER=
